<svg xmlns="http://www.w3.org/2000/svg" xmlns:xlink="http://www.w3.org/1999/xlink" width="500" zoomAndPan="magnify" viewBox="0 0 375 374.999991" height="500" preserveAspectRatio="xMidYMid meet" version="1.0"><defs><clipPath id="558e08ae17"><path d="M 11.425781 238.273438 L 363.542969 238.273438 L 363.542969 375 L 11.425781 375 Z M 11.425781 238.273438 " clip-rule="nonzero"/></clipPath><clipPath id="102096bd25"><path d="M 130.664062 261.128906 L 243.9375 261.128906 L 243.9375 375 L 130.664062 375 Z M 130.664062 261.128906 " clip-rule="nonzero"/></clipPath><clipPath id="f444c92c16"><path d="M 156.5 262.121094 L 216 262.121094 L 216 375 L 156.5 375 Z M 156.5 262.121094 " clip-rule="nonzero"/></clipPath><clipPath id="877b9e176e"><path d="M 92 238.273438 L 188 238.273438 L 188 375 L 92 375 Z M 92 238.273438 " clip-rule="nonzero"/></clipPath><clipPath id="98497d1273"><path d="M 187.300781 238.273438 L 283 238.273438 L 283 375 L 187.300781 375 Z M 187.300781 238.273438 " clip-rule="nonzero"/></clipPath><clipPath id="a5cbcb23ec"><path d="M 74.027344 331 L 87.9375 331 L 87.9375 375 L 74.027344 375 Z M 74.027344 331 " clip-rule="nonzero"/></clipPath><clipPath id="e997f3d196"><path d="M 287.660156 331 L 301 331 L 301 375 L 287.660156 375 Z M 287.660156 331 " clip-rule="nonzero"/></clipPath></defs><g clip-path="url(#558e08ae17)"><path fill="#6b809b" d="M 168.855469 301.941406 L 131 238.84375 C 82.191406 255.378906 18.53125 259.894531 13.957031 325.585938 C 13.378906 333.910156 12.023438 354.707031 11.425781 375.039062 L 363.542969 375.039062 C 362.945312 354.707031 361.597656 333.910156 361.019531 325.585938 C 356.441406 259.894531 292.777344 255.378906 243.972656 238.84375 L 206.117188 301.941406 L 168.855469 301.941406 " fill-opacity="1" fill-rule="evenodd"/></g><path fill="#000000" d="M 258.191406 71.640625 L 256.875 100.113281 C 268.125 121.445312 256.625 133.101562 250.71875 137.347656 C 247.914062 161.863281 233.875 178.210938 216.125 186.359375 C 207.441406 190.347656 197.914062 192.34375 188.421875 192.34375 C 178.929688 192.34375 169.398438 190.347656 160.71875 186.359375 C 142.96875 178.210938 128.929688 161.863281 126.121094 137.347656 C 120.214844 133.101562 108.71875 121.445312 119.964844 100.113281 L 118.648438 71.640625 L 118.882812 69.71875 C 124.066406 51.984375 136.066406 39.214844 151.011719 31.390625 C 163.078125 25.078125 177.066406 22.023438 190.867188 22.230469 C 204.730469 22.441406 218.476562 25.933594 229.984375 32.703125 C 243.515625 40.664062 253.96875 53.09375 258.027344 70 L 258.191406 71.640625 " fill-opacity="1" fill-rule="nonzero"/><g clip-path="url(#102096bd25)"><path fill="#ffffff" d="M 187.117188 261.996094 C 218.246094 261.996094 243.480469 282.929688 243.480469 301.167969 C 243.480469 319.410156 231.605469 368.390625 214.09375 375.039062 L 160.132812 375.039062 C 142.628906 368.390625 130.757812 319.40625 130.757812 301.167969 C 130.757812 282.929688 155.988281 261.996094 187.117188 261.996094 " fill-opacity="1" fill-rule="evenodd"/></g><g clip-path="url(#f444c92c16)"><path fill="#00bcd4" d="M 187.863281 262.414062 L 166.609375 284.816406 L 172.941406 292.910156 L 156.59375 375.039062 L 201.25 375.039062 L 215.476562 374.421875 L 204.773438 292.9375 L 209.121094 284.816406 L 187.863281 262.414062 " fill-opacity="1" fill-rule="evenodd"/></g><path fill="#d3aa96" d="M 235.054688 169.480469 L 237.402344 217.667969 L 186.324219 268.851562 L 138.328125 216.410156 L 140.535156 169.332031 L 235.054688 169.480469 " fill-opacity="1" fill-rule="evenodd"/><path fill="#02abc1" d="M 184.4375 262.410156 L 166.609375 284.816406 L 172.941406 292.910156 L 172.933594 292.9375 L 204.773438 292.9375 L 209.121094 284.816406 L 191.691406 262.410156 L 184.4375 262.410156 " fill-opacity="1" fill-rule="evenodd"/><path fill="#e8e8e8" d="M 116.941406 238.84375 L 138.457031 213.527344 L 187.863281 262.417969 L 150.074219 304.671875 L 116.941406 238.84375 " fill-opacity="1" fill-rule="evenodd"/><path fill="#e8e8e8" d="M 258.789062 238.84375 L 237.273438 213.527344 L 187.863281 262.417969 L 225.65625 304.671875 L 258.789062 238.84375 " fill-opacity="1" fill-rule="evenodd"/><path fill="#d3aa96" d="M 258.253906 108.253906 C 258.253906 108.253906 282.476562 143.710938 250.953125 158.351562 L 258.253906 108.253906 " fill-opacity="1" fill-rule="evenodd"/><path fill="#d3aa96" d="M 117.480469 108.253906 C 117.480469 108.253906 93.253906 143.710938 124.777344 158.351562 L 117.480469 108.253906 " fill-opacity="1" fill-rule="evenodd"/><path fill="#ffceb4" d="M 194.105469 40.769531 C 232.796875 40.769531 259.09375 71.128906 259.09375 122.917969 C 259.09375 156.640625 234.332031 225.84375 194.53125 225.84375 C 190.078125 225.84375 185.65625 225.84375 181.199219 225.84375 C 141.398438 225.84375 116.636719 156.640625 116.636719 122.917969 C 116.636719 71.128906 142.9375 40.769531 181.625 40.769531 C 185.789062 40.769531 189.945312 40.769531 194.105469 40.769531 " fill-opacity="1" fill-rule="evenodd"/><path fill="#000000" d="M 116.636719 122.898438 C 116.636719 122.898438 107.410156 59.699219 118.039062 54.101562 C 116.019531 42.695312 127.3125 32.476562 135.304688 29.421875 C 135.304688 29.421875 149.289062 12.917969 182.292969 9.5625 C 182.292969 9.5625 232.21875 0.0429688 261.46875 45.917969 C 266.199219 53.332031 265.402344 51.667969 260.050781 58.511719 C 263.804688 78.320312 263.441406 104.773438 259.085938 124.21875 C 259.085938 124.21875 251.378906 75.011719 242.707031 68.578125 C 242.707031 68.578125 191.804688 95.992188 135.585938 63.824219 C 135.585938 63.824219 127.929688 69.464844 124.464844 83.292969 C 123.683594 86.394531 123.183594 89.433594 122.652344 93.070312 C 121.128906 103.558594 119.066406 112.40625 116.636719 122.898438 " fill-opacity="1" fill-rule="evenodd"/><g clip-path="url(#877b9e176e)"><path fill="#4f6074" d="M 138.191406 375.039062 L 101.214844 304.773438 L 112.714844 284.953125 L 92 278.484375 L 95.90625 247.957031 L 118.632812 238.84375 L 119.671875 240.902344 L 187.488281 375.039062 L 138.191406 375.039062 " fill-opacity="1" fill-rule="evenodd"/></g><g clip-path="url(#98497d1273)"><path fill="#4f6074" d="M 236.78125 375.039062 L 273.753906 304.773438 L 262.253906 284.953125 L 282.96875 278.484375 L 279.070312 247.957031 L 256.34375 238.84375 L 255.300781 240.902344 L 187.488281 375.039062 L 236.78125 375.039062 " fill-opacity="1" fill-rule="evenodd"/></g><g clip-path="url(#a5cbcb23ec)"><path fill="#4f6074" d="M 79.339844 331.121094 L 87.285156 375.039062 L 74.316406 375.039062 Z M 79.339844 331.121094 " fill-opacity="1" fill-rule="evenodd"/></g><g clip-path="url(#e997f3d196)"><path fill="#4f6074" d="M 295.632812 331.121094 L 287.6875 375.039062 L 300.652344 375.039062 Z M 295.632812 331.121094 " fill-opacity="1" fill-rule="evenodd"/></g></svg>